<svg xmlns="http://www.w3.org/2000/svg" preserveAspectRatio="none" overflow="visible" style="display: block;" width="420" height="420" viewBox="0 0 420 420" fill="none">
<g id="hour ticks &#194;&#183; 24h, noon on top">
<path id="Vector" d="M210 402V413" stroke="#191F38" />
<path id="Vector_2" d="M160.31 395.461L159.01 400.291" stroke="#191F38" />
<path id="Vector_3" d="M114 376.279L111.5 380.609" stroke="#191F38" />
<path id="Vector_4" d="M74.2392 345.76L70.6992 349.3" stroke="#191F38" />
<path id="Vector_5" d="M43.7206 306L39.3906 308.5" stroke="#191F38" />
<path id="Vector_6" d="M24.5409 259.689L19.7109 260.989" stroke="#191F38" />
<path id="Vector_7" d="M18 210H7" stroke="#191F38" />
<path id="Vector_8" d="M24.5409 160.31L19.7109 159.01" stroke="#191F38" />
<path id="Vector_9" d="M43.7206 114L39.3906 111.5" stroke="#191F38" />
<path id="Vector_10" d="M74.2392 74.2392L70.6992 70.6992" stroke="#191F38" />
<path id="Vector_11" d="M114 43.7206L111.5 39.3906" stroke="#191F38" />
<path id="Vector_12" d="M160.31 24.5409L159.01 19.7109" stroke="#191F38" />
<path id="Vector_13" d="M210 18V7" stroke="#191F38" />
<path id="Vector_14" d="M259.689 24.5409L260.989 19.7109" stroke="#191F38" />
<path id="Vector_15" d="M306 43.7206L308.5 39.3906" stroke="#191F38" />
<path id="Vector_16" d="M345.76 74.2392L349.3 70.6992" stroke="#191F38" />
<path id="Vector_17" d="M376.279 114L380.609 111.5" stroke="#191F38" />
<path id="Vector_18" d="M395.461 160.31L400.291 159.01" stroke="#191F38" />
<path id="Vector_19" d="M402 210H413" stroke="#191F38" />
<path id="Vector_20" d="M395.461 259.689L400.291 260.989" stroke="#191F38" />
<path id="Vector_21" d="M376.279 306L380.609 308.5" stroke="#191F38" />
<path id="Vector_22" d="M345.76 345.76L349.3 349.3" stroke="#191F38" />
<path id="Vector_23" d="M259.689 395.461L260.989 400.291" stroke="#191F38" />
</g>
<defs>
<clipPath id="clip0_0_17">
<rect width="26.6667" height="26.6667" fill="white" transform="translate(63.1289 84.6836) rotate(-45)" />
</clipPath>
</defs>
</svg>